<svg xmlns="http://www.w3.org/2000/svg" viewBox="0 0 1440 520">
  <defs>
    <linearGradient id="bg3" x1="0%" y1="0%" x2="100%" y2="100%">
      <stop offset="0%" style="stop-color:#051828"/>
      <stop offset="60%" style="stop-color:#0d3352"/>
      <stop offset="100%" style="stop-color:#0a5d7e"/>
    </linearGradient>
    <radialGradient id="r3a" cx="80%" cy="30%" r="40%">
      <stop offset="0%" style="stop-color:#009FDA;stop-opacity:0.28"/>
      <stop offset="100%" style="stop-color:transparent"/>
    </radialGradient>
  </defs>
  <rect width="1440" height="520" fill="url(#bg3)"/>
  <circle cx="1200" cy="150" r="320" fill="url(#r3a)"/>
  <!-- Cityscape silhouette -->
  <g fill="white" opacity="0.07">
    <rect x="700" y="200" width="80" height="320"/>
    <rect x="790" y="260" width="60" height="260"/>
    <rect x="860" y="180" width="100" height="340"/>
    <rect x="970" y="230" width="70" height="290"/>
    <rect x="1050" y="150" width="110" height="370"/>
    <rect x="1170" y="220" width="80" height="300"/>
    <rect x="1260" y="280" width="90" height="240"/>
    <rect x="1360" y="200" width="80" height="320"/>
    <!-- Windows -->
  </g>
  <!-- Sun/energy symbol -->
  <g transform="translate(1050,140)" opacity="0.15">
    <circle cx="55" cy="55" r="35" fill="#FFD700"/>
    <g stroke="#FFD700" stroke-width="3" opacity="0.8">
      <line x1="55" y1="0" x2="55" y2="20"/>
      <line x1="55" y1="90" x2="55" y2="110"/>
      <line x1="0" y1="55" x2="20" y2="55"/>
      <line x1="90" y1="55" x2="110" y2="55"/>
      <line x1="16" y1="16" x2="30" y2="30"/>
      <line x1="80" y1="80" x2="94" y2="94"/>
      <line x1="94" y1="16" x2="80" y2="30"/>
      <line x1="16" y1="94" x2="30" y2="80"/>
    </g>
  </g>
  <path d="M0,480 C240,450 480,470 720,455 C960,440 1200,465 1440,450 L1440,520 L0,520Z" fill="#009FDA" opacity="0.07"/>
</svg>
